<svg viewBox="0 0 20 22" fill="none" xmlns="http://www.w3.org/2000/svg">
<path d="M18.3333 0H5C4.55797 0 4.13405 0.175595 3.82149 0.488155C3.50893 0.800716 3.33333 1.22464 3.33333 1.66667V4.16667H1.66667C1.22464 4.16667 0.800716 4.34226 0.488155 4.65482C0.175595 4.96738 0 5.39131 0 5.83333V15.8333C0 16.2754 0.175595 16.6993 0.488155 17.0118C0.800716 17.3244 1.22464 17.5 1.66667 17.5H3.33333V20C3.33333 20.442 3.50893 20.8659 3.82149 21.1785C4.13405 21.4911 4.55797 21.6667 5 21.6667H18.3333C18.7754 21.6667 19.1993 21.4911 19.5118 21.1785C19.8244 20.8659 20 20.442 20 20V1.66667C20 1.22464 19.8244 0.800716 19.5118 0.488155C19.1993 0.175595 18.7754 0 18.3333 0ZM5 14.1667C4.8416 14.1667 4.68647 14.1216 4.55277 14.0367C4.41908 13.9517 4.31237 13.8305 4.24514 13.687C4.17791 13.5436 4.15295 13.384 4.17318 13.2269C4.19341 13.0698 4.258 12.9217 4.35937 12.8L5.99896 10.8333L4.35937 8.86667C4.21793 8.69676 4.14977 8.47763 4.16989 8.25747C4.19001 8.03731 4.29676 7.83416 4.46667 7.69271C4.63657 7.55126 4.85571 7.4831 5.07587 7.50322C5.29603 7.52334 5.49918 7.6301 5.64062 7.8L7.08333 9.53125L8.52604 7.8C8.59608 7.71587 8.682 7.64636 8.7789 7.59544C8.87581 7.54452 8.98179 7.51318 9.0908 7.50322C9.19981 7.49326 9.30972 7.50486 9.41425 7.53737C9.51877 7.56989 9.61587 7.62267 9.7 7.69271C9.78413 7.76275 9.85364 7.84867 9.90456 7.94557C9.95548 8.04247 9.98682 8.14845 9.99678 8.25747C10.0067 8.36648 9.99514 8.47639 9.96262 8.58091C9.93011 8.68544 9.87733 8.78254 9.80729 8.86667L8.16771 10.8333L9.80729 12.8C9.94874 12.9699 10.0169 13.189 9.99678 13.4092C9.97666 13.6294 9.8699 13.8325 9.7 13.974C9.5301 14.1154 9.31096 14.1836 9.0908 14.1634C8.87064 14.1433 8.66749 14.0366 8.52604 13.8667L7.08333 12.1354L5.64062 13.8667C5.56239 13.9606 5.46444 14.0362 5.35372 14.088C5.24301 14.1399 5.12225 14.1667 5 14.1667ZM10.8333 20H5V17.5H10.8333V20ZM10.8333 4.16667H5V1.66667H10.8333V4.16667ZM18.3333 20H12.5V17.5C12.942 17.5 13.3659 17.3244 13.6785 17.0118C13.9911 16.6993 14.1667 16.2754 14.1667 15.8333V15H18.3333V20ZM18.3333 13.3333H14.1667V8.33333H18.3333V13.3333ZM18.3333 6.66667H14.1667V5.83333C14.1667 5.39131 13.9911 4.96738 13.6785 4.65482C13.3659 4.34226 12.942 4.16667 12.5 4.16667V1.66667H18.3333V6.66667Z" fill="#032D38"/>
</svg>
