<svg viewBox="0 0 20 20" fill="none" xmlns="http://www.w3.org/2000/svg">
<path d="M18.4 1.66641H15.2C15.2 1.24206 15.0314 0.835094 14.7314 0.535035C14.4313 0.234977 14.0243 0.0664063 13.6 0.0664062H1.6C1.17565 0.0664063 0.768687 0.234977 0.468629 0.535035C0.168571 0.835094 0 1.24206 0 1.66641V9.66641C0 10.0908 0.168571 10.4977 0.468629 10.7978C0.768687 11.0978 1.17565 11.2664 1.6 11.2664H2.4V17.6664C2.4 18.0908 2.56857 18.4977 2.86863 18.7978C3.16869 19.0978 3.57565 19.2664 4 19.2664H18.4C18.8243 19.2664 19.2313 19.0978 19.5314 18.7978C19.8314 18.4977 20 18.0908 20 17.6664V3.26641C20 2.84206 19.8314 2.43509 19.5314 2.13504C19.2313 1.83498 18.8243 1.66641 18.4 1.66641ZM9.034 3.83241C8.88389 3.68229 8.79956 3.4787 8.79956 3.26641C8.79956 3.05412 8.88389 2.85052 9.034 2.70041C9.18411 2.55029 9.38771 2.46596 9.6 2.46596C9.81229 2.46596 10.0159 2.55029 10.166 2.70041L12.566 5.10041C12.6404 5.1747 12.6994 5.26294 12.7396 5.36005C12.7799 5.45717 12.8006 5.56127 12.8006 5.66641C12.8006 5.77154 12.7799 5.87564 12.7396 5.97276C12.6994 6.06988 12.6404 6.15811 12.566 6.23241L10.166 8.63241C10.0159 8.78252 9.81229 8.86685 9.6 8.86685C9.38771 8.86685 9.18411 8.78252 9.034 8.63241C8.88389 8.48229 8.79956 8.2787 8.79956 8.06641C8.79956 7.85412 8.88389 7.65052 9.034 7.50041L10.869 5.66641L9.034 3.83241ZM2.634 6.23241C2.55962 6.15811 2.50061 6.06988 2.46035 5.97276C2.42009 5.87564 2.39937 5.77154 2.39937 5.66641C2.39937 5.56127 2.42009 5.45717 2.46035 5.36005C2.50061 5.26294 2.55962 5.1747 2.634 5.10041L5.034 2.70041C5.18411 2.55029 5.38771 2.46596 5.6 2.46596C5.81229 2.46596 6.01589 2.55029 6.166 2.70041C6.31611 2.85052 6.40044 3.05412 6.40044 3.26641C6.40044 3.4787 6.31611 3.68229 6.166 3.83241L4.331 5.66641L6.166 7.50041C6.31611 7.65052 6.40044 7.85412 6.40044 8.06641C6.40044 8.2787 6.31611 8.48229 6.166 8.63241C6.01589 8.78252 5.81229 8.86685 5.6 8.86685C5.38771 8.86685 5.18411 8.78252 5.034 8.63241L2.634 6.23241ZM18.4 17.6664H4V11.2664H13.6C14.0243 11.2664 14.4313 11.0978 14.7314 10.7978C15.0314 10.4977 15.2 10.0908 15.2 9.66641V3.26641H18.4V17.6664Z" fill="#032D38"/>
</svg>
