<svg viewBox="0 0 20 25" fill="none" xmlns="http://www.w3.org/2000/svg">
<path d="M19.7408 7.2983L13.375 0.932504C13.2905 0.84808 13.1902 0.781136 13.0798 0.735495C12.9694 0.689853 12.8511 0.66641 12.7316 0.666504H1.8188C1.33642 0.666504 0.873805 0.858127 0.532714 1.19922C0.191623 1.54031 0 2.00293 0 2.4853V22.4921C0 22.9745 0.191623 23.4371 0.532714 23.7782C0.873805 24.1193 1.33642 24.3109 1.8188 24.3109H5.9111C6.03169 24.3109 6.14735 24.263 6.23262 24.1777C6.31789 24.0924 6.3658 23.9768 6.3658 23.8562V21.5827H5.48709C5.25201 21.5864 5.02426 21.5009 4.84979 21.3433C4.67532 21.1857 4.56711 20.9678 4.547 20.7335C4.53874 20.6091 4.55614 20.4844 4.59813 20.367C4.64012 20.2496 4.7058 20.1421 4.79108 20.0512C4.87636 19.9603 4.97943 19.8878 5.09388 19.8384C5.20834 19.789 5.33173 19.7636 5.4564 19.7639H6.3658V17.9451H5.48709C5.25201 17.9488 5.02426 17.8633 4.84979 17.7057C4.67532 17.5481 4.56711 17.3302 4.547 17.0959C4.53874 16.9715 4.55614 16.8468 4.59813 16.7294C4.64012 16.612 4.7058 16.5045 4.79108 16.4136C4.87636 16.3227 4.97943 16.2502 5.09388 16.2008C5.20834 16.1514 5.33173 16.126 5.4564 16.1263H6.3658V14.3075H5.48709C5.25201 14.3112 5.02426 14.2257 4.84979 14.0681C4.67532 13.9105 4.56711 13.6926 4.547 13.4583C4.53874 13.334 4.55614 13.2092 4.59813 13.0918C4.64012 12.9744 4.7058 12.8669 4.79108 12.776C4.87636 12.6851 4.97943 12.6126 5.09388 12.5632C5.20834 12.5138 5.33173 12.4884 5.4564 12.4887H6.3658V11.61C6.3629 11.3754 6.44881 11.1483 6.6063 10.9744C6.76378 10.8005 6.9812 10.6925 7.21495 10.6722C7.33934 10.6639 7.46411 10.6813 7.58149 10.7233C7.69887 10.7653 7.80637 10.831 7.8973 10.9163C7.98824 11.0015 8.06066 11.1046 8.11009 11.2191C8.15951 11.3335 8.18487 11.4569 8.1846 11.5816V12.491H9.0633C9.29799 12.4878 9.52517 12.5736 9.69916 12.7312C9.87315 12.8887 9.98103 13.1063 10.0011 13.3401C10.0094 13.4645 9.99197 13.5893 9.94999 13.7067C9.908 13.824 9.84232 13.9315 9.75704 14.0225C9.67176 14.1134 9.56869 14.1858 9.45423 14.2353C9.33978 14.2847 9.21639 14.31 9.09172 14.3098H8.18232V16.1286H9.06103C9.29572 16.1254 9.5229 16.2112 9.69689 16.3688C9.87087 16.5263 9.97876 16.7439 9.99885 16.9777C10.0071 17.1021 9.9897 17.2269 9.94771 17.3443C9.90572 17.4616 9.84005 17.5691 9.75477 17.6601C9.66948 17.751 9.56641 17.8234 9.45196 17.8729C9.33751 17.9223 9.21412 17.9476 9.08945 17.9474H8.18005V19.7662H9.05876C9.29345 19.763 9.52063 19.8488 9.69461 20.0064C9.8686 20.1639 9.97649 20.3815 9.99657 20.6153C10.0048 20.7397 9.98743 20.8645 9.94544 20.9819C9.90345 21.0992 9.83778 21.2067 9.75249 21.2977C9.66721 21.3886 9.56414 21.461 9.44969 21.5105C9.33523 21.5599 9.21184 21.5852 9.08717 21.585H8.17778V23.8585C8.17778 23.9791 8.22568 24.0947 8.31095 24.18C8.39623 24.2653 8.51188 24.3132 8.63247 24.3132H18.1812C18.6635 24.3132 19.1262 24.1215 19.4673 23.7805C19.8083 23.4394 20 22.9767 20 22.4944V7.9417C20.002 7.70141 19.9088 7.4701 19.7408 7.2983ZM12.7316 7.9417V2.94L17.7333 7.9417H12.7316Z" fill="#032D38"/>
</svg>
